<svg width="297" height="105" viewBox="0 0 297 105" fill="none" xmlns="http://www.w3.org/2000/svg">
<path d="M170.051 68.6146C171.004 66.3931 171.007 64.1205 170.058 61.7969" stroke="#8AA2B3" stroke-width="2"/>
<path d="M170.049 68.6145C171.003 66.393 171.005 64.1204 170.057 61.7968C169.935 53.8197 170.113 45.845 170.589 37.8728C170.672 36.4534 171.02 35.2162 171.633 34.1614C173.545 30.8655 180.404 22.9832 184.739 25.9437C190.584 29.9322 185.957 42.5468 184.104 47.5343C180.879 56.2187 174.501 59.5947 179.456 69.9999C181.243 73.7551 183.644 72.8364 186.023 70.328C186.845 69.453 187.008 68.4711 186.512 67.3822C184.834 63.6999 183.549 59.7405 184.52 55.1978C184.545 55.0798 184.594 54.97 184.663 54.8766C184.733 54.7832 184.821 54.7086 184.921 54.6582C190.963 51.5593 191.876 62.8614 191.657 66.0114C191.55 67.6058 192.121 67.9072 193.371 66.9155C195.133 65.5155 196.161 63.6829 196.458 61.4176C197.94 50.1082 212.177 45.2374 221.78 46.302C222.051 46.3302 222.303 46.456 222.488 46.6558C222.673 46.8557 222.779 47.1161 222.787 47.3884C222.969 53.9874 222.291 61.3884 223.458 67.827C223.487 67.9816 223.551 68.1274 223.646 68.253C223.74 68.3785 223.863 68.4803 224.004 68.5503C224.145 68.6203 224.3 68.6567 224.457 68.6564C224.615 68.6562 224.77 68.6193 224.91 68.5489C227.049 67.477 230.901 61.8989 231.69 59.5874C231.761 59.3686 231.766 59.1256 231.704 58.8874C229.683 51.2457 228.683 47.1551 237.396 44.3843C239.155 43.8228 241.687 44.3041 242.307 46.3676C243.241 49.4884 239.739 51.2093 237.287 51.902C237.175 51.9331 237.072 51.9889 236.985 52.0651C236.898 52.1413 236.829 52.2361 236.783 52.3425C236.738 52.4489 236.717 52.5641 236.722 52.6797C236.727 52.7953 236.758 52.9083 236.812 53.0103C237.827 54.9426 238.87 56.0874 240.811 57.553C244.509 60.3482 246.766 64.0985 247.583 68.8041C247.601 68.9003 247.656 68.9857 247.735 69.0417C247.814 69.0976 247.912 69.1197 248.006 69.103C248.595 68.9912 248.921 68.8697 248.984 68.7384C249.3 68.0579 249.451 67.3409 249.437 66.5874C249.283 57.7499 252.589 45.7478 263.039 45.5874C269.329 45.4926 271.613 50.2832 268.059 55.2051C265.5 58.7489 262.287 61.6655 258.42 63.9551C258.328 64.0109 258.257 64.093 258.215 64.1898C258.173 64.2866 258.163 64.3933 258.186 64.4947C258.996 67.9582 261.623 70.503 265.323 70.0364C267.94 69.701 270.402 68.0846 272.708 65.1874C272.812 65.0561 272.943 64.9475 273.091 64.8685C273.239 64.7895 273.402 64.7416 273.569 64.7279C273.736 64.7143 273.903 64.7351 274.062 64.789C274.22 64.843 274.365 64.9289 274.488 65.0416C275.16 65.6541 275.04 66.6141 274.131 67.9218C270.489 73.1572 264.381 79.5884 257.34 77.3499C254.37 76.402 252.414 73.5509 250.779 70.9551C250.74 70.8943 250.689 70.842 250.63 70.8014C250.57 70.7609 250.502 70.7329 250.431 70.7193C250.36 70.7057 250.287 70.7066 250.217 70.7221C250.146 70.7375 250.079 70.7672 250.02 70.8093C244.628 74.7103 240.483 79.7999 232.952 77.6416C227.027 75.9499 230.697 65.4864 236.9 73.0041C237.061 73.198 237.261 73.3312 237.469 73.3832C238.69 73.6895 239.729 73.4343 240.585 72.6176C240.665 72.5406 240.726 72.4449 240.764 72.3375C240.802 72.2302 240.815 72.1141 240.804 71.9978C240.388 68.2207 237.024 64.3343 234.36 62.1468C234.324 62.1172 234.282 62.0956 234.237 62.0836C234.191 62.0715 234.144 62.0692 234.097 62.0767C234.05 62.0843 234.005 62.1016 233.965 62.1274C233.925 62.1533 233.891 62.1872 233.864 62.227C232.303 64.5676 231.12 67.353 229.617 69.3364C226.567 73.3614 217.971 83.8249 214.701 72.8072C214.682 72.7415 214.647 72.6814 214.599 72.632C214.552 72.5825 214.493 72.5452 214.428 72.5231C214.363 72.501 214.293 72.4947 214.226 72.5048C214.158 72.5149 214.093 72.5411 214.037 72.5812C211.279 74.5426 207.411 77.8239 204.201 77.9405C199.56 78.1082 197.246 73.9812 195.999 69.9562C195.97 69.8648 195.907 69.7878 195.822 69.7405C195.737 69.6931 195.636 69.679 195.539 69.7009L191.211 70.6707C190.971 70.7273 190.766 70.8595 190.635 71.0426C186.877 76.351 182.053 81.5062 175.311 76.4895C172.903 74.6957 171.509 71.3853 170.049 68.6145ZM180.484 32.1051C177.405 32.9072 177.974 46.7176 178.208 49.3937C178.305 50.5263 178.585 50.5725 179.047 49.5322C180.638 45.9447 183.958 35.9187 181.076 32.3166C181.004 32.2273 180.91 32.1598 180.806 32.1223C180.701 32.0849 180.589 32.0789 180.484 32.1051ZM260.273 50.7645C258.021 53.7978 257.147 56.7825 257.653 59.7187C257.765 60.3603 258.038 60.4381 258.471 59.952C260.086 58.1339 261.599 56.2454 263.01 54.2864C264.214 52.6093 264.579 49.2916 261.419 50.0134C260.958 50.117 260.551 50.3839 260.273 50.7645ZM205.521 58.0634C204.799 60.8489 203.332 72.5155 209.841 70.6416C212.673 69.8249 214.142 67.7954 214.249 64.553C214.405 59.9884 214.385 55.4214 214.191 50.852C214.187 50.765 214.162 50.6802 214.12 50.6044C214.077 50.5286 214.017 50.4639 213.944 50.4156C213.872 50.3673 213.789 50.3368 213.702 50.3264C213.616 50.3161 213.528 50.3263 213.446 50.3562C209.703 51.7416 206.58 54.0239 205.521 58.0634Z" fill="#8BB4B4"/>
<path d="M170.055 61.797C171.004 64.1206 171.002 66.3932 170.048 68.6147C165.699 71.9835 154.271 87.1575 154.096 69.5043C154.048 64.1377 153.933 58.9703 153.753 54.0022C153.69 52.2231 152.858 51.7248 151.258 52.5075C143.26 56.4158 146.551 69.2929 145.332 76.0595C145.27 76.4077 145.103 76.7278 144.855 76.9758C144.607 77.2239 144.289 77.3878 143.946 77.445L139.633 78.1814C138.704 78.3418 138.164 77.9529 138.013 77.0147C137.609 74.4481 137.575 71.7963 137.911 69.0595C137.927 68.9277 137.923 68.8003 137.899 68.6851C137.875 68.5699 137.832 68.4691 137.772 68.3887C137.359 67.82 136.86 67.9342 136.276 68.7314C130.832 76.1179 120.682 83.271 114.319 71.4877C114.238 71.339 114.124 71.2113 113.985 71.1148C113.846 71.0184 113.686 70.956 113.518 70.9326C113.351 70.9092 113.18 70.9254 113.02 70.98C112.86 71.0347 112.715 71.1261 112.596 71.247C110.393 73.5075 105.431 77.7293 102.132 77.6637C98.0602 77.5835 97.637 73.245 97.0897 70.1825C96.7929 68.5443 96.0656 68.3231 94.9078 69.5189C91.821 72.7127 86.6546 77.8168 81.9186 77.6783C81.0089 77.654 80.301 77.2627 79.7951 76.5043C78.2675 74.2245 77.5305 71.6943 77.584 68.9137C77.6035 67.7227 77.1438 67.5137 76.2048 68.2866C72.6365 71.2325 68.747 74.7397 64.6167 76.7887C56.0132 81.0543 56.8451 69.5408 54.8165 70.5106C54.6284 70.5994 54.4598 70.7834 54.3421 71.0283C52.44 74.9415 49.3508 77.1338 45.0746 77.6054C26.4956 79.6397 24.7297 60.0908 27.6559 47.3304C30.7208 33.9963 39.1832 26.7727 53.0432 25.6595C60.0413 25.0981 67.4919 27.3585 70.7537 33.9137C71.987 36.4002 70.7537 38.9377 68.0465 39.3533C65.164 39.7981 64.3175 38.2595 63.4273 35.6637C61.8 30.8877 57.48 28.2991 52.7148 30.0783C40.4116 34.6866 35.9675 50.9543 38.9229 62.4752C41.4843 72.4356 55.7651 73.5512 55.5973 60.1564C55.5389 55.4703 55.6021 50.9738 55.787 46.6668C55.8356 45.5245 56.4097 44.788 57.5092 44.4575C59.5037 43.8595 61.2308 43.5557 62.6902 43.546C62.817 43.545 62.9426 43.5695 63.0596 43.6181C63.1766 43.6668 63.2826 43.7385 63.3712 43.8291C63.4598 43.9197 63.5291 44.0272 63.5751 44.1452C63.6211 44.2631 63.6428 44.3892 63.6389 44.5158C63.4443 50.5144 63.4419 56.5106 63.6316 62.5043C63.7629 66.7554 63.2594 71.5095 69.5789 68.972C70.7513 68.5005 73.2665 66.5634 77.1243 63.1606C77.2069 63.0875 77.273 62.9964 77.3183 62.8933C77.3636 62.7902 77.387 62.6775 77.387 62.5627L77.3432 52.1939C77.3434 52.0834 77.3197 51.9741 77.2737 51.8736C77.2276 51.773 77.1603 51.6837 77.0764 51.6116C76.9925 51.5396 76.894 51.4865 76.7876 51.4561C76.6813 51.4257 76.5696 51.4187 76.4602 51.4356C75.9008 51.5231 75.3073 51.4137 74.6797 51.1075C74.5806 51.0578 74.4945 50.9836 74.4285 50.891C74.3625 50.7985 74.3185 50.6902 74.3002 50.5752C74.1154 49.2384 74.1762 47.9331 74.4827 46.6595C74.5074 46.5637 74.5656 46.479 74.6478 46.4194C74.7299 46.3598 74.8312 46.3288 74.9351 46.3314C75.7913 46.346 76.5065 46.1102 77.0805 45.6241C77.1627 45.5535 77.2288 45.4615 77.2742 45.3545C77.3196 45.2474 77.3431 45.128 77.3432 45.0043L77.3578 35.5033C77.3578 34.2394 77.9465 33.5102 79.1238 33.3158L84.2829 32.47C84.4082 32.4503 84.5363 32.4583 84.6585 32.4933C84.7808 32.5284 84.8944 32.5898 84.9918 32.6733C85.0892 32.7568 85.1682 32.8606 85.2234 32.9777C85.2786 33.0948 85.3087 33.2225 85.3119 33.3522L85.5892 43.0356C85.5931 43.1382 85.6186 43.2388 85.664 43.3305C85.7094 43.4222 85.7736 43.5028 85.852 43.5666C85.9305 43.6305 86.0214 43.676 86.1184 43.7002C86.2154 43.7243 86.3162 43.7264 86.4137 43.7064L95.2946 41.847C95.624 41.7763 95.9213 41.5816 96.1394 41.2936C96.3575 41.0057 96.4839 40.6411 96.4986 40.2575L96.6956 34.9856C96.7048 34.716 96.8027 34.4519 96.9769 34.2272C97.1511 34.0024 97.3937 33.8273 97.6735 33.7241C99.5805 33.0241 101.668 32.6474 103.935 32.5939C104.167 32.5877 104.393 32.6712 104.563 32.8266C104.734 32.982 104.835 33.1968 104.847 33.4252L105.146 39.0981C105.149 39.1533 105.161 39.2076 105.181 39.2577C105.201 39.3078 105.23 39.3526 105.265 39.3895C105.299 39.4263 105.34 39.4543 105.383 39.4719C105.427 39.4895 105.473 39.4963 105.518 39.4918L108.656 39.1564C109.828 39.03 110.548 39.4432 110.816 40.396C111.064 41.2661 111.049 42.2651 110.772 43.3929C110.706 43.6587 110.566 43.9002 110.369 44.0888C110.171 44.2775 109.923 44.4054 109.656 44.4575L105.861 45.1793C105.598 45.2284 105.361 45.3672 105.189 45.572C105.017 45.7769 104.922 46.035 104.92 46.3022C104.871 53.1078 104.856 59.8963 104.876 66.6679C104.881 68.5102 105.793 69.429 107.612 69.4241C111.242 69.4193 112.966 67.6814 112.786 64.2106C112.356 55.9564 116.333 46.6741 125.286 45.471C129.555 44.895 133.496 47.2283 132.336 51.9606C131.256 56.3575 125.586 60.871 121.879 63.146C121.584 63.3256 121.353 63.5925 121.217 63.9099C121.081 64.2273 121.047 64.5796 121.12 64.9179C121.455 66.4491 122.521 68.1554 123.827 69.096C128.95 72.7564 134.211 67.2439 136.751 63.1752C137.383 62.1641 137.702 61.063 137.706 59.872L137.758 47.9866C137.762 47.0825 138.217 46.5161 139.122 46.2877L143.617 45.172C144.994 44.8269 145.692 45.3373 145.712 46.7033L145.777 51.5522C145.779 51.6923 145.802 51.8232 145.842 51.9345C145.883 52.0459 145.94 52.1347 146.011 52.1939C146.312 52.4467 146.638 52.3495 146.989 51.9022C149.389 48.8325 155.001 44.0856 159.628 44.8585C161.058 45.0967 161.792 46.0811 161.831 47.8116C161.963 53.5137 162.014 59.2182 161.985 64.9252C161.97 67.5429 162.641 70.146 165.976 67.9075C167.762 66.7116 169.121 64.6748 170.055 61.797ZM86.8078 69.0668C89.7924 70.7731 93.6235 67.0689 95.6667 65.2533C96.3332 64.6651 96.6616 63.9602 96.6519 63.1387L96.484 48.4825C96.4829 48.3271 96.4472 48.1739 96.3796 48.0338C96.312 47.8937 96.2141 47.7702 96.0929 47.6721C95.9716 47.5739 95.83 47.5035 95.6782 47.4659C95.5263 47.4282 95.3679 47.4243 95.2143 47.4543L86.8516 49.1095C85.8737 49.304 85.3848 49.9092 85.3848 50.9252L85.414 66.6897C85.414 67.7446 85.8786 68.537 86.8078 69.0668ZM126.118 50.0866C121.879 49.1022 119.792 56.022 120.288 58.7856C120.502 60.0106 121.039 60.1734 121.901 59.2741C124.024 57.0502 126.994 54.1116 126.79 50.8814C126.778 50.6937 126.706 50.515 126.585 50.3719C126.464 50.2287 126.3 50.1287 126.118 50.0866Z" fill="#154466"/>
</svg>
