<svg width="18" height="18" viewBox="0 0 18 18" fill="none" xmlns="http://www.w3.org/2000/svg">
<path d="M11.25 14.91C11.28 15.135 11.205 15.375 11.0325 15.5325C10.9631 15.602 10.8807 15.6572 10.7899 15.6948C10.6992 15.7325 10.602 15.7518 10.5037 15.7518C10.4055 15.7518 10.3082 15.7325 10.2175 15.6948C10.1268 15.6572 10.0444 15.602 9.97498 15.5325L6.96748 12.525C6.88568 12.445 6.82348 12.3472 6.78575 12.2392C6.74802 12.1313 6.73577 12.016 6.74998 11.9025V8.0625L3.15748 3.465C3.03568 3.30865 2.98073 3.11044 3.00462 2.9137C3.02851 2.71695 3.1293 2.53766 3.28498 2.415C3.42748 2.31 3.58498 2.25 3.74998 2.25H14.25C14.415 2.25 14.5725 2.31 14.715 2.415C14.8707 2.53766 14.9714 2.71695 14.9953 2.9137C15.0192 3.11044 14.9643 3.30865 14.8425 3.465L11.25 8.0625V14.91ZM5.27998 3.75L8.24998 7.545V11.685L9.74998 13.185V7.5375L12.72 3.75H5.27998Z" fill="#8BB4B4"/>
</svg>
