<svg width="70" height="56" viewBox="0 0 70 56" fill="none" xmlns="http://www.w3.org/2000/svg">
<path d="M42.2905 33.29L41.0005 32V27C41.0005 23.93 39.3605 21.36 36.5005 20.68V20C36.5005 19.17 35.8305 18.5 35.0005 18.5C34.1705 18.5 33.5005 19.17 33.5005 20V20.68C30.6305 21.36 29.0005 23.92 29.0005 27V32L27.7105 33.29C27.0805 33.92 27.5205 35 28.4105 35H41.5805C42.4805 35 42.9205 33.92 42.2905 33.29ZM39.0005 33H31.0005V27C31.0005 24.52 32.5105 22.5 35.0005 22.5C37.4905 22.5 39.0005 24.52 39.0005 27V33ZM35.0005 38C36.1005 38 37.0005 37.1 37.0005 36H33.0005C33.0005 36.5304 33.2113 37.0391 33.5863 37.4142C33.9614 37.7893 34.4701 38 35.0005 38Z" fill="#344B64"/>
<rect x="43" y="14" width="8" height="8" rx="4" fill="#BA1A1A"/>
</svg>
