<svg width="168" height="168" viewBox="0 0 168 168" fill="none" xmlns="http://www.w3.org/2000/svg">
<path d="M61.7348 96.4993C53.8014 96.4993 47.0221 93.6952 41.3971 88.087C35.7721 82.4789 32.9596 75.708 32.9596 67.7746C32.9596 59.8411 35.7637 53.0618 41.3719 47.4368C46.9801 41.8118 53.7509 38.9993 61.6844 38.9993C69.6179 38.9993 76.3971 41.8034 82.0221 47.4116C87.6471 53.0198 90.4596 59.7907 90.4596 67.7241C90.4596 75.6576 87.6555 82.4368 82.0473 88.0618C76.4391 93.6868 69.6683 96.4993 61.7348 96.4993ZM61.7096 83.9993C66.2235 83.9993 70.0603 82.4195 73.22 79.2598C76.3798 76.1 77.9596 72.2632 77.9596 67.7493C77.9596 63.2355 76.3798 59.3986 73.22 56.2389C70.0603 53.0792 66.2235 51.4993 61.7096 51.4993C57.1957 51.4993 53.3589 53.0792 50.1992 56.2389C47.0395 59.3986 45.4596 63.2355 45.4596 67.7493C45.4596 72.2632 47.0395 76.1 50.1992 79.2598C53.3589 82.4195 57.1957 83.9993 61.7096 83.9993ZM124.418 106.083C118.307 106.083 113.099 103.93 108.793 99.6243C104.487 95.3188 102.335 90.1105 102.335 83.9993C102.335 77.8882 104.487 72.6799 108.793 68.3743C113.099 64.0688 118.307 61.916 124.418 61.916C130.529 61.916 135.737 64.0688 140.043 68.3743C144.349 72.6799 146.501 77.8882 146.501 83.9993C146.501 90.1105 144.349 95.3188 140.043 99.6243C135.737 103.93 130.529 106.083 124.418 106.083ZM71.918 153.999C78.5846 141.638 87.0916 133.201 97.4388 128.687C107.786 124.173 116.779 121.916 124.418 121.916C127.612 121.916 130.564 122.159 133.272 122.645C135.98 123.131 138.793 123.791 141.71 124.624C145.321 119.485 148.411 113.366 150.98 106.266C153.55 99.1668 154.835 91.7445 154.835 83.9993C154.835 64.225 147.973 47.4759 134.249 33.7519C120.525 20.028 103.776 13.166 84.0013 13.166C64.227 13.166 47.4778 20.028 33.7538 33.7519C20.0299 47.4759 13.168 64.225 13.168 83.9993C13.168 91.0827 14.2096 97.923 16.293 104.52C18.3763 111.117 21.2235 117.055 24.8346 122.333C30.1124 119.555 36.0152 117.333 42.543 115.666C49.0707 113.999 55.4596 113.166 61.7096 113.166C65.5192 113.166 69.1799 113.409 72.6917 113.895C76.2037 114.381 79.4874 115.18 82.543 116.291C79.9041 117.68 77.4735 119.173 75.2513 120.77C73.0291 122.367 71.0152 124.069 69.2096 125.874C67.8207 125.735 66.5013 125.666 65.2513 125.666H61.7096C56.9874 125.666 51.8832 126.326 46.3971 127.645C40.911 128.965 36.1541 130.597 32.1263 132.541C37.4041 138.097 43.4805 142.784 50.3555 146.604C57.2305 150.423 64.418 152.888 71.918 153.999ZM84.0988 167.333C72.6449 167.333 61.8485 165.145 51.7096 160.77C41.5707 156.395 32.7166 150.423 25.1471 142.854C17.5777 135.284 11.6055 126.446 7.23047 116.34C2.85547 106.233 0.667969 95.4348 0.667969 83.9439C0.667969 72.4531 2.85547 61.673 7.23047 51.6035C11.6055 41.5341 17.5777 32.7146 25.1471 25.1452C32.7166 17.5757 41.5545 11.6035 51.6609 7.22852C61.7673 2.85352 72.5659 0.666016 84.0567 0.666016C95.5475 0.666016 106.328 2.85352 116.397 7.22852C126.467 11.6035 135.286 17.5757 142.855 25.1452C150.425 32.7146 156.397 41.5363 160.772 51.6102C165.147 61.6841 167.335 72.448 167.335 83.9018C167.335 95.3557 165.147 106.152 160.772 116.291C156.397 126.43 150.425 135.284 142.855 142.854C135.286 150.423 126.464 156.395 116.39 160.77C106.317 165.145 95.5527 167.333 84.0988 167.333Z" fill="#C2C7CF"/>
</svg>
