<svg width="184" height="184" viewBox="0 0 184 184" fill="none" xmlns="http://www.w3.org/2000/svg">
<path d="M91.9987 183.667C76.4431 183.667 61.4431 179.084 46.9987 169.917C32.5543 160.751 21.1654 150.265 12.832 138.459V167.001H0.332031V117.001H50.332V129.501H21.7904C28.8737 140.195 38.9779 149.813 52.1029 158.355C65.2279 166.896 78.5265 171.167 91.9987 171.167C102.832 171.167 113.075 169.084 122.728 164.917C132.381 160.751 140.783 155.091 147.936 147.938C155.089 140.785 160.749 132.383 164.915 122.73C169.082 113.077 171.165 102.834 171.165 92.0007H183.665C183.665 104.64 181.27 116.515 176.478 127.626C171.686 138.737 165.124 148.459 156.79 156.792C148.457 165.126 138.735 171.688 127.624 176.48C116.513 181.271 104.638 183.667 91.9987 183.667ZM0.332031 92.0007C0.332031 79.3618 2.72786 67.4868 7.51953 56.3757C12.3112 45.2645 18.8737 35.5423 27.207 27.209C35.5404 18.8757 45.2626 12.3132 56.3737 7.52148C67.4848 2.72982 79.3598 0.333984 91.9987 0.333984C107.554 0.333984 122.554 4.91732 136.999 14.084C151.443 23.2507 162.832 33.7368 171.165 45.5423V17.0007H183.665V67.0007H133.665V54.5007H162.207C155.124 43.8062 145.054 34.1882 131.999 25.6465C118.943 17.1048 105.61 12.834 91.9987 12.834C81.1654 12.834 70.9223 14.9173 61.2695 19.084C51.6168 23.2507 43.214 28.9104 36.0612 36.0632C28.9084 43.2159 23.2487 51.6187 19.082 61.2715C14.9154 70.9243 12.832 81.1673 12.832 92.0007H0.332031ZM91.3737 140.751C93.5959 140.751 95.4709 139.987 96.9987 138.459C98.5265 136.931 99.2904 135.056 99.2904 132.834C99.2904 130.612 98.5265 128.737 96.9987 127.209C95.4709 125.681 93.5959 124.917 91.3737 124.917C89.1515 124.917 87.2765 125.681 85.7487 127.209C84.2209 128.737 83.457 130.612 83.457 132.834C83.457 135.056 84.2209 136.931 85.7487 138.459C87.2765 139.987 89.1515 140.751 91.3737 140.751ZM84.4987 109.917H96.3737C96.3737 105.612 97.0681 102.105 98.457 99.3965C99.8459 96.6882 102.276 93.5979 105.749 90.1257C110.332 85.5423 113.526 81.4798 115.332 77.9382C117.138 74.3965 118.04 70.6812 118.04 66.7923C118.04 59.5701 115.54 53.7715 110.54 49.3965C105.54 45.0215 99.2904 42.834 91.7904 42.834C84.9848 42.834 79.0126 44.4659 73.8737 47.7298C68.7348 50.9937 64.9154 55.7507 62.4154 62.0007L73.457 66.584C75.2626 62.9729 77.7626 60.0909 80.957 57.9382C84.1515 55.7854 87.7626 54.709 91.7904 54.709C95.8181 54.709 99.2209 55.8201 101.999 58.0423C104.776 60.2645 106.165 63.3201 106.165 67.209C106.165 69.9868 105.401 72.6604 103.874 75.2298C102.346 77.7993 99.7765 80.8201 96.1654 84.2923C91.0265 89.1534 87.7973 93.3201 86.4779 96.7923C85.1584 100.265 84.4987 104.64 84.4987 109.917Z" fill="#C2C7CF"/>
</svg>
