<svg width="159" height="168" viewBox="0 0 159 168" fill="none" xmlns="http://www.w3.org/2000/svg">
<path d="M29.375 74.418L75.2083 0.667969L121.042 74.418H29.375ZM122.083 167.335C111.806 167.335 103.194 163.862 96.25 156.918C89.3056 149.974 85.8333 141.362 85.8333 131.085C85.8333 120.807 89.3056 112.196 96.25 105.251C103.194 98.3068 111.806 94.8346 122.083 94.8346C132.361 94.8346 140.972 98.3068 147.917 105.251C154.861 112.196 158.333 120.807 158.333 131.085C158.333 141.362 154.861 149.974 147.917 156.918C140.972 163.862 132.361 167.335 122.083 167.335ZM0 162.126V98.793H63.3333V162.126H0ZM122.101 154.835C128.756 154.835 134.375 152.537 138.958 147.942C143.542 143.347 145.833 137.722 145.833 131.067C145.833 124.412 143.536 118.793 138.941 114.21C134.346 109.626 128.721 107.335 122.066 107.335C115.411 107.335 109.792 109.632 105.208 114.227C100.625 118.822 98.3333 124.447 98.3333 131.102C98.3333 137.757 100.631 143.376 105.226 147.96C109.821 152.543 115.446 154.835 122.101 154.835ZM12.5 149.626H50.8333V111.293H12.5V149.626ZM51.875 61.918H98.5417L75.2083 24.2096L51.875 61.918Z" fill="#C2C7CF"/>
</svg>
